<svg width="403" height="198" viewBox="0 0 403 198" fill="none" xmlns="http://www.w3.org/2000/svg">
<path d="M89.0542 29.93C113.034 30.15 133.384 44.45 133.384 71.07C133.384 97.69 113.034 112.1 89.0542 112.21C74.4242 112.21 59.7942 112.21 45.1642 112.21C21.1842 112.1 0.83418 97.69 0.83418 71.07C0.83418 44.45 21.1842 30.15 45.1642 29.93C50.4442 29.93 75.5242 29.93 89.0542 29.93ZM83.5542 93.51C96.8642 93.51 110.064 87.35 110.064 71.07C110.064 54.79 96.8642 48.74 83.5542 48.74C72.5542 48.74 61.6642 48.52 50.6642 48.74C37.3542 48.74 24.1542 54.79 24.1542 71.07C24.1542 87.35 37.3542 93.51 50.6642 93.51C61.5542 93.51 72.6642 93.62 83.5542 93.51ZM162.437 86.25V111H139.997C139.997 84.38 139.997 57.76 139.997 31.25C171.457 31.25 203.027 31.25 234.597 31.25C252.637 31.36 263.967 40.16 263.967 58.75C263.967 72.28 257.917 80.64 247.577 84.16L264.407 111H237.897L223.377 86.14C203.027 86.25 182.787 86.25 162.437 86.25ZM162.437 48.63V68.76C185.097 68.76 207.647 68.76 230.307 68.76C237.457 68.76 240.647 65.68 240.647 58.75C240.647 51.82 237.457 48.63 230.307 48.63C207.647 48.63 185.097 48.63 162.437 48.63ZM394.142 93.51V111C353.112 111 312.082 111 271.052 111C271.052 84.38 271.052 57.76 271.052 31.25H394.142V48.63C360.592 48.63 327.042 48.63 293.492 48.63V62.38C325.392 62.38 357.182 62.38 389.082 62.38V79.76C357.182 79.76 325.392 79.76 293.492 79.76V93.51C327.042 93.51 360.592 93.51 394.142 93.51Z" fill="white"/>
<path d="M96.5453 173.672V167.72H111.265C111.948 167.72 112.289 167.251 112.289 166.312C112.289 165.331 111.969 164.776 111.329 164.648L104.801 163.56C99.2973 162.621 96.5453 159.357 96.5453 153.768C96.5453 146.557 100.129 142.952 107.297 142.952H116.833L121.313 146.28V152.232H108.129C107.447 152.232 107.105 152.701 107.105 153.64C107.105 154.877 107.447 155.539 108.129 155.624L114.657 156.712C120.119 157.608 122.849 160.765 122.849 166.184C122.849 173.395 119.265 177 112.097 177H101.025L96.5453 173.672ZM130.127 166.248V132.84H140.815V142.952H151.247V152.232H140.815V166.888C140.815 167.443 141.093 167.72 141.647 167.72H151.887V173.672L147.407 177H140.879C133.711 177 130.127 173.416 130.127 166.248ZM158.315 166.248V142.952H169.003V166.888C169.003 167.443 169.28 167.72 169.835 167.72H177.451V142.952H188.139V177H169.067C161.899 177 158.315 173.416 158.315 166.248ZM196.309 166.248V153.704C196.309 146.536 199.893 142.952 207.061 142.952H215.445V129.64H226.133V177H207.061C199.893 177 196.309 173.416 196.309 166.248ZM206.997 166.888C206.997 167.443 207.274 167.72 207.829 167.72H215.445V152.232H207.829C207.274 152.232 206.997 152.509 206.997 153.064V166.888ZM234.693 137.704V127.784H245.637V137.704H234.693ZM234.821 177V142.952H245.509V177H234.821ZM253.684 166.248V153.704C253.684 146.536 257.268 142.952 264.436 142.952H273.396C280.564 142.952 284.148 146.536 284.148 153.704V166.248C284.148 173.416 280.564 177 273.396 177H264.436C257.268 177 253.684 173.416 253.684 166.248ZM264.372 166.888C264.372 167.443 264.649 167.72 265.204 167.72H272.628C273.182 167.72 273.46 167.443 273.46 166.888V153.064C273.46 152.509 273.182 152.232 272.628 152.232H265.204C264.649 152.232 264.372 152.509 264.372 153.064V166.888ZM291.233 173.672V167.72H305.953C306.635 167.72 306.977 167.251 306.977 166.312C306.977 165.331 306.657 164.776 306.017 164.648L299.489 163.56C293.985 162.621 291.233 159.357 291.233 153.768C291.233 146.557 294.817 142.952 301.985 142.952H311.521L316.001 146.28V152.232H302.817C302.134 152.232 301.793 152.701 301.793 153.64C301.793 154.877 302.134 155.539 302.817 155.624L309.345 156.712C314.806 157.608 317.537 160.765 317.537 166.184C317.537 173.395 313.953 177 306.785 177H295.713L291.233 173.672Z" fill="#EB0609"/>
</svg>
