<svg width="512" height="512" viewBox="0 0 512 512" fill="none" xmlns="http://www.w3.org/2000/svg">
<path d="M66.2043 321.832C80.1562 321.96 91.9963 330.28 91.9963 345.768C91.9963 361.256 80.1562 369.64 66.2043 369.704C57.6923 369.704 49.1803 369.704 40.6683 369.704C26.7163 369.64 14.8762 361.256 14.8762 345.768C14.8762 330.28 26.7163 321.96 40.6683 321.832C43.7403 321.832 58.3323 321.832 66.2043 321.832ZM63.0043 358.824C70.7483 358.824 78.4283 355.24 78.4283 345.768C78.4283 336.296 70.7483 332.776 63.0043 332.776C56.6043 332.776 50.2683 332.648 43.8683 332.776C36.1243 332.776 28.4443 336.296 28.4443 345.768C28.4443 355.24 36.1243 358.824 43.8683 358.824C50.2043 358.824 56.6683 358.888 63.0043 358.824ZM108.9 354.6V369H95.8438C95.8438 353.512 95.8438 338.024 95.8438 322.6C114.148 322.6 132.516 322.6 150.884 322.6C161.38 322.664 167.972 327.784 167.972 338.6C167.972 346.472 164.452 351.336 158.436 353.384L168.228 369H152.804L144.356 354.536C132.516 354.6 120.74 354.6 108.9 354.6ZM108.9 332.712V344.424C122.084 344.424 135.204 344.424 148.388 344.424C152.548 344.424 154.404 342.632 154.404 338.6C154.404 334.568 152.548 332.712 148.388 332.712C135.204 332.712 122.084 332.712 108.9 332.712ZM243.71 358.824V369C219.838 369 195.966 369 172.094 369C172.094 353.512 172.094 338.024 172.094 322.6H243.71V332.712C224.19 332.712 204.67 332.712 185.15 332.712V340.712C203.71 340.712 222.206 340.712 240.766 340.712V350.824C222.206 350.824 203.71 350.824 185.15 350.824V358.824C204.67 358.824 224.19 358.824 243.71 358.824Z" fill="white"/>
<path d="M270.264 365.672V359.72H284.984C285.667 359.72 286.008 359.251 286.008 358.312C286.008 357.331 285.688 356.776 285.048 356.648L278.52 355.56C273.016 354.621 270.264 351.357 270.264 345.768C270.264 338.557 273.848 334.952 281.016 334.952H290.552L295.032 338.28V344.232H281.848C281.165 344.232 280.824 344.701 280.824 345.64C280.824 346.877 281.165 347.539 281.848 347.624L288.376 348.712C293.837 349.608 296.568 352.765 296.568 358.184C296.568 365.395 292.984 369 285.816 369H274.744L270.264 365.672ZM303.846 358.248V324.84H314.534V334.952H324.966V344.232H314.534V358.888C314.534 359.443 314.811 359.72 315.366 359.72H325.606V365.672L321.126 369H314.598C307.43 369 303.846 365.416 303.846 358.248ZM332.034 358.248V334.952H342.722V358.888C342.722 359.443 342.999 359.72 343.554 359.72H351.17V334.952H361.858V369H342.786C335.618 369 332.034 365.416 332.034 358.248ZM370.028 358.248V345.704C370.028 338.536 373.612 334.952 380.78 334.952H389.164V321.64H399.852V369H380.78C373.612 369 370.028 365.416 370.028 358.248ZM380.716 358.888C380.716 359.443 380.993 359.72 381.548 359.72H389.164V344.232H381.548C380.993 344.232 380.716 344.509 380.716 345.064V358.888ZM408.411 329.704V319.784H419.356V329.704H408.411ZM408.54 369V334.952H419.228V369H408.54ZM427.403 358.248V345.704C427.403 338.536 430.987 334.952 438.155 334.952H447.115C454.283 334.952 457.867 338.536 457.867 345.704V358.248C457.867 365.416 454.283 369 447.115 369H438.155C430.987 369 427.403 365.416 427.403 358.248ZM438.091 358.888C438.091 359.443 438.368 359.72 438.923 359.72H446.347C446.901 359.72 447.179 359.443 447.179 358.888V345.064C447.179 344.509 446.901 344.232 446.347 344.232H438.923C438.368 344.232 438.091 344.509 438.091 345.064V358.888ZM464.952 365.672V359.72H479.672C480.354 359.72 480.696 359.251 480.696 358.312C480.696 357.331 480.376 356.776 479.736 356.648L473.208 355.56C467.704 354.621 464.952 351.357 464.952 345.768C464.952 338.557 468.536 334.952 475.704 334.952H485.24L489.72 338.28V344.232H476.536C475.853 344.232 475.512 344.701 475.512 345.64C475.512 346.877 475.853 347.539 476.536 347.624L483.064 348.712C488.525 349.608 491.256 352.765 491.256 358.184C491.256 365.395 487.672 369 480.503 369H469.432L464.952 365.672Z" fill="white"/>
<path d="M426.654 219.776L426.608 219.556L426.557 219.331L408.695 143.376L408.623 143.095L408.552 142.814C397.321 100.89 359.164 71.6129 315.758 71.6129H195.246C151.839 71.6129 113.682 100.89 102.451 142.814L102.375 143.095L102.308 143.376L84.4467 219.33L84.3955 219.55L84.3497 219.769C77.7805 251.055 95.7549 282.096 126.151 291.982L127.22 292.325C133.446 294.355 139.949 295.387 146.508 295.387C168.52 295.387 189.045 283.66 200.251 264.735L215.45 242.268L215.828 241.705L216.171 241.118C216.707 240.182 217.704 239.6 218.772 239.6H292.233C293.302 239.6 294.299 240.182 294.835 241.118L295.178 241.705L295.556 242.268L310.755 264.735C321.96 283.66 342.485 295.387 364.503 295.387C371.062 295.387 377.565 294.355 383.822 292.314L384.855 291.982C415.244 282.102 433.213 251.056 426.654 219.776ZM379.025 274.06L377.987 274.398C373.534 275.849 368.989 276.545 364.501 276.545C349.242 276.545 334.662 268.493 326.707 254.691L311.166 231.712C307.266 224.938 300.043 220.757 292.231 220.757H218.77C210.959 220.757 203.736 224.939 199.835 231.712L184.295 254.691C176.341 268.493 161.766 276.545 146.506 276.545C142.017 276.545 137.473 275.849 133.02 274.398L131.977 274.06C110.798 267.175 98.217 245.433 102.793 223.645L120.655 147.69C129.698 113.93 160.293 90.4551 195.245 90.4551H315.757C350.708 90.4551 381.304 113.93 390.347 147.69L408.209 223.645C412.78 245.433 400.205 267.175 379.025 274.06Z" fill="white"/>
<path d="M189.096 126.94H166.495V152.894H140.536V175.485H166.495V201.449H189.096V175.485H215.055V152.894H189.096V126.94Z" fill="white"/>
<path d="M329.433 148.216C321.581 148.216 315.216 154.58 315.216 162.443C315.216 170.295 321.581 176.66 329.433 176.66C337.295 176.66 343.659 170.295 343.659 162.443C343.659 154.58 337.294 148.216 329.433 148.216Z" fill="white"/>
</svg>
