<svg width="753" height="74" viewBox="0 0 753 74" fill="none" xmlns="http://www.w3.org/2000/svg">
<path d="M34 4.09375C37.5938 4.09375 41.1719 4.5625 44.7344 5.5C48.3281 6.40625 51.5469 7.6875 54.3906 9.34375L50.0312 19.5156C47.3438 18.2344 44.8594 17.3125 42.5781 16.75C40.3281 16.1562 38.0469 15.8594 35.7344 15.8594C29.2656 15.8594 24.3438 17.8125 20.9688 21.7188C17.625 25.625 15.9531 31.2969 15.9531 38.7344C15.9531 46.2969 17.625 52.0312 20.9688 55.9375C24.3438 59.8125 29.2656 61.75 35.7344 61.75C40.7344 61.75 45.9531 60.6094 51.3906 58.3281L54.9531 69.0625C47.9219 72.1875 40.875 73.75 33.8125 73.75C23.1875 73.75 15.0469 70.7656 9.39062 64.7969C3.73438 58.7969 0.90625 50.2031 0.90625 39.0156C0.90625 31.7969 2.21875 25.5625 4.84375 20.3125C7.46875 15.0625 11.25 11.0469 16.1875 8.26562C21.1562 5.48438 27.0938 4.09375 34 4.09375ZM77.7344 28.8438C79.8281 26.5938 82.2812 24.875 85.0938 23.6875C87.9062 22.5 90.9844 21.9062 94.3281 21.9062C99.5781 21.9062 103.625 23.4375 106.469 26.5C109.312 29.5312 110.734 33.8906 110.734 39.5781V73H96.3438V40.375C96.3438 37.4375 95.7656 35.3125 94.6094 34C93.4531 32.6875 91.5938 32.0312 89.0312 32.0312C86.7188 32.0312 84.5625 32.5625 82.5625 33.625C80.5625 34.6562 78.9531 36.0625 77.7344 37.8438V73H63.2969V0.625H77.7344V28.8438ZM142.422 21.7188C149.516 21.7188 154.953 23.4688 158.734 26.9688C162.516 30.4688 164.406 35.5469 164.406 42.2031V73H152.5L150.859 67.0469C148.797 69.2344 146.469 70.9062 143.875 72.0625C141.312 73.1875 138.562 73.75 135.625 73.75C130.438 73.75 126.312 72.4062 123.25 69.7188C120.219 67.0312 118.703 63.4219 118.703 58.8906C118.703 53.6406 120.906 49.5469 125.312 46.6094C129.75 43.6719 135.938 42.2031 143.875 42.2031H150.016V40.9375C149.828 35.125 146.531 32.2188 140.125 32.2188C137.938 32.2188 135.406 32.5469 132.531 33.2031C129.656 33.8281 127.062 34.6406 124.75 35.6406L121.703 25.9375C125.016 24.5938 128.5 23.5625 132.156 22.8438C135.812 22.0938 139.234 21.7188 142.422 21.7188ZM145.094 50.0781C141 50.0781 137.812 50.7812 135.531 52.1875C133.281 53.5938 132.156 55.5469 132.156 58.0469C132.156 60.1094 132.781 61.6875 134.031 62.7812C135.281 63.8438 137.047 64.375 139.328 64.375C141.391 64.375 143.359 63.9219 145.234 63.0156C147.141 62.1094 148.734 60.8906 150.016 59.3594V50.0781H145.094ZM189.812 29.6875C192.969 24.5 197.391 21.9062 203.078 21.9062C204.297 21.9062 205.328 21.9844 206.172 22.1406C207.047 22.2656 208.156 22.5156 209.5 22.8906L207.859 35.4531C205.172 34.4844 202.797 34.0156 200.734 34.0469C198.484 34.0469 196.578 34.4531 195.016 35.2656C193.453 36.0469 192.141 37.2969 191.078 39.0156V73H176.641V22.7031H188.078L189.812 29.6875ZM235.609 21.7188C242.703 21.7188 248.141 23.4688 251.922 26.9688C255.703 30.4688 257.594 35.5469 257.594 42.2031V73H245.688L244.047 67.0469C241.984 69.2344 239.656 70.9062 237.062 72.0625C234.5 73.1875 231.75 73.75 228.812 73.75C223.625 73.75 219.5 72.4062 216.438 69.7188C213.406 67.0312 211.891 63.4219 211.891 58.8906C211.891 53.6406 214.094 49.5469 218.5 46.6094C222.938 43.6719 229.125 42.2031 237.062 42.2031H243.203V40.9375C243.016 35.125 239.719 32.2188 233.312 32.2188C231.125 32.2188 228.594 32.5469 225.719 33.2031C222.844 33.8281 220.25 34.6406 217.938 35.6406L214.891 25.9375C218.203 24.5938 221.688 23.5625 225.344 22.8438C229 22.0938 232.422 21.7188 235.609 21.7188ZM238.281 50.0781C234.188 50.0781 231 50.7812 228.719 52.1875C226.469 53.5938 225.344 55.5469 225.344 58.0469C225.344 60.1094 225.969 61.6875 227.219 62.7812C228.469 63.8438 230.234 64.375 232.516 64.375C234.578 64.375 236.547 63.9219 238.422 63.0156C240.328 62.1094 241.922 60.8906 243.203 59.3594V50.0781H238.281ZM292.141 21.9062C297.266 21.9062 302.125 23.0938 306.719 25.4688L303.531 34.9844C300.125 33.2031 296.828 32.3125 293.641 32.3125C289.484 32.3125 286.266 33.6562 283.984 36.3438C281.734 39.0312 280.609 42.8281 280.609 47.7344C280.609 52.6094 281.766 56.375 284.078 59.0312C286.422 61.6875 289.781 63.0156 294.156 63.0156C297.75 63.0156 301.266 62.25 304.703 60.7188L307 70.5156C304.688 71.5469 302.188 72.3438 299.5 72.9062C296.812 73.4688 294.25 73.75 291.812 73.75C283.5 73.75 277.141 71.5156 272.734 67.0469C268.328 62.5781 266.125 56.1406 266.125 47.7344C266.125 39.5469 268.391 33.2031 272.922 28.7031C277.453 24.1719 283.859 21.9062 292.141 21.9062ZM346.984 71.0781C342.641 72.8594 338.484 73.75 334.516 73.75C323.453 73.75 317.922 68.4688 317.922 57.9062V32.7812H309.625V22.7031H318.859L321.625 8.3125H332.219V22.7031H345.953V32.7812H332.219V55.8906C332.219 58.4531 332.688 60.2812 333.625 61.375C334.594 62.4688 336.234 63.0156 338.547 63.0156C340.516 63.0156 342.625 62.625 344.875 61.8438L346.984 71.0781ZM365.922 50.5469C366.672 59.1094 371.078 63.3906 379.141 63.3906C381.641 63.3906 384.156 63.1094 386.688 62.5469C389.219 61.9531 392.016 61.0156 395.078 59.7344L398.547 68.6875C390.922 72.2188 383.875 73.9688 377.406 73.9375C369.469 73.9375 363.234 71.625 358.703 67C354.172 62.375 351.906 55.9531 351.906 47.7344C351.906 39.5469 354.125 33.1719 358.562 28.6094C363 24.0156 369.219 21.7188 377.219 21.7188C392.25 21.7188 399.766 30.2344 399.766 47.2656V50.5469H365.922ZM386.547 42.2031C386.141 35.2031 383.062 31.7031 377.312 31.7031C374.125 31.7031 371.609 32.5781 369.766 34.3281C367.953 36.0469 366.766 38.6719 366.203 42.2031H386.547ZM422.688 29.6875C425.844 24.5 430.266 21.9062 435.953 21.9062C437.172 21.9062 438.203 21.9844 439.047 22.1406C439.922 22.2656 441.031 22.5156 442.375 22.8906L440.734 35.4531C438.047 34.4844 435.672 34.0156 433.609 34.0469C431.359 34.0469 429.453 34.4531 427.891 35.2656C426.328 36.0469 425.016 37.2969 423.953 39.0156V73H409.516V22.7031H420.953L422.688 29.6875ZM467.125 21.7188C471.875 21.7188 477.422 22.8125 483.766 25L480.766 34.4219C477.453 33.3281 474.812 32.5781 472.844 32.1719C470.906 31.7344 469.172 31.5156 467.641 31.5156C465.266 31.5156 463.391 31.9688 462.016 32.875C460.641 33.7812 459.953 35 459.953 36.5312C459.953 38 460.609 39.1562 461.922 40C463.234 40.8125 465.203 41.6094 467.828 42.3906C471.484 43.4219 474.375 44.3906 476.5 45.2969C478.656 46.1719 480.562 47.6562 482.219 49.75C483.875 51.8125 484.703 54.6406 484.703 58.2344C484.703 63.1719 482.859 67.0312 479.172 69.8125C475.516 72.5625 470.484 73.9375 464.078 73.9375C457.359 73.9375 450.922 72.5938 444.766 69.9062L448.234 60.4375C451.891 61.7812 454.844 62.7344 457.094 63.2969C459.375 63.8281 461.406 64.0938 463.188 64.0938C465.688 64.0938 467.578 63.625 468.859 62.6875C470.141 61.75 470.781 60.4219 470.781 58.7031C470.781 56.9844 470.047 55.7188 468.578 54.9062C467.109 54.0938 464.734 53.2188 461.453 52.2812C458.391 51.375 455.828 50.4531 453.766 49.5156C451.734 48.5469 449.984 47.0312 448.516 44.9688C447.047 42.9062 446.312 40.1875 446.312 36.8125C446.312 32.0625 448.141 28.3594 451.797 25.7031C455.484 23.0469 460.594 21.7188 467.125 21.7188ZM509.031 4.9375H524.031L534.484 36.9062C536.016 41.6562 537.969 48.6562 540.344 57.9062L540.906 60.3438C543.344 50.2188 545.453 42.4062 547.234 36.9062L557.828 4.9375H572.781L549.953 73H531.906L509.031 4.9375ZM598.328 21.7188C605.422 21.7188 610.859 23.4688 614.641 26.9688C618.422 30.4688 620.312 35.5469 620.312 42.2031V73H608.406L606.766 67.0469C604.703 69.2344 602.375 70.9062 599.781 72.0625C597.219 73.1875 594.469 73.75 591.531 73.75C586.344 73.75 582.219 72.4062 579.156 69.7188C576.125 67.0312 574.609 63.4219 574.609 58.8906C574.609 53.6406 576.812 49.5469 581.219 46.6094C585.656 43.6719 591.844 42.2031 599.781 42.2031H605.922V40.9375C605.734 35.125 602.438 32.2188 596.031 32.2188C593.844 32.2188 591.312 32.5469 588.438 33.2031C585.562 33.8281 582.969 34.6406 580.656 35.6406L577.609 25.9375C580.922 24.5938 584.406 23.5625 588.062 22.8438C591.719 22.0938 595.141 21.7188 598.328 21.7188ZM601 50.0781C596.906 50.0781 593.719 50.7812 591.438 52.1875C589.188 53.5938 588.062 55.5469 588.062 58.0469C588.062 60.1094 588.688 61.6875 589.938 62.7812C591.188 63.8438 592.953 64.375 595.234 64.375C597.297 64.375 599.266 63.9219 601.141 63.0156C603.047 62.1094 604.641 60.8906 605.922 59.3594V50.0781H601ZM646.094 55.3281C646.094 58.2031 646.672 60.2969 647.828 61.6094C648.984 62.9219 650.844 63.5781 653.406 63.5781C655.656 63.5781 657.781 63.0781 659.781 62.0781C661.812 61.0469 663.422 59.625 664.609 57.8125V22.7031H679.047V73H667.141L665.5 65.9688C663.375 68.5312 660.875 70.4688 658 71.7812C655.125 73.0938 651.953 73.75 648.484 73.75C643.047 73.75 638.891 72.2344 636.016 69.2031C633.141 66.1719 631.703 61.8125 631.703 56.125V22.7031H646.094V55.3281ZM693.156 0.8125H707.547V73H693.156V0.8125ZM752.828 71.0781C748.484 72.8594 744.328 73.75 740.359 73.75C729.297 73.75 723.766 68.4688 723.766 57.9062V32.7812H715.469V22.7031H724.703L727.469 8.3125H738.062V22.7031H751.797V32.7812H738.062V55.8906C738.062 58.4531 738.531 60.2812 739.469 61.375C740.438 62.4688 742.078 63.0156 744.391 63.0156C746.359 63.0156 748.469 62.625 750.719 61.8438L752.828 71.0781Z" fill="#003590"/>
</svg>
